<svg width="16" height="16" viewBox="0 0 16 16" fill="none" xmlns="http://www.w3.org/2000/svg">
<path d="M2.25965 3.2802L6.75965 0.70877C7.52823 0.26958 8.47177 0.26958 9.24035 0.70877L13.7403 3.2802C14.5193 3.72531 15 4.55366 15 5.45081V10.5492C15 11.4463 14.5193 12.2747 13.7403 12.7198L9.24035 15.2912C8.47177 15.7304 7.52823 15.7304 6.75965 15.2912L2.25965 12.7198C1.48072 12.2747 1 11.4463 1 10.5492V5.45081C1 4.55366 1.48072 3.72531 2.25965 3.2802Z" fill="url(#paint0_linear_5266_417)"/>
<path d="M4.74703 10.249V6.68503H3.45703V5.70703H7.23103V6.68503H5.94703V10.249H4.74703Z" fill="white" style="fill:white;fill-opacity:1;"/>
<path d="M8.3873 10.249V5.70703H9.7013C10.2773 5.70703 10.6493 5.73703 10.9313 5.80303C11.9393 6.04303 12.5033 6.81703 12.5033 7.97503C12.5033 9.13903 11.9393 9.91303 10.9313 10.153C10.6493 10.219 10.2773 10.249 9.7013 10.249H8.3873ZM9.8813 9.34303C10.1153 9.34303 10.2653 9.32503 10.4273 9.28903C10.9853 9.16903 11.2613 8.68903 11.2613 7.98103C11.2613 7.24303 10.9853 6.78703 10.4273 6.66703C10.2653 6.63103 10.1153 6.61303 9.8813 6.61303H9.5813V9.34303H9.8813Z" fill="white" style="fill:white;fill-opacity:1;"/>
<defs>
<linearGradient id="paint0_linear_5266_417" x1="8" y1="0" x2="8" y2="16" gradientUnits="userSpaceOnUse">
<stop stop-color="#587CFF" style="stop-color:#587CFF;stop-color:color(display-p3 0.3451 0.4863 1.0000);stop-opacity:1;"/>
<stop offset="1" stop-color="#2651F5" style="stop-color:#2651F5;stop-color:color(display-p3 0.1490 0.3176 0.9608);stop-opacity:1;"/>
</linearGradient>
</defs>
</svg>
