<svg width="16" height="16" viewBox="0 0 16 16" fill="none" xmlns="http://www.w3.org/2000/svg">
<path d="M2.25965 3.27973L6.75965 0.708298C7.52823 0.269109 8.47177 0.269109 9.24035 0.708298L13.7403 3.27973C14.5193 3.72483 15 4.55319 15 5.45034V10.5487C15 11.4459 14.5193 12.2742 13.7403 12.7193L9.24035 15.2908C8.47177 15.7299 7.52823 15.7299 6.75965 15.2908L2.25965 12.7193C1.48072 12.2742 1 11.4459 1 10.5487V5.45034C1 4.55319 1.48072 3.72483 2.25965 3.27973Z" fill="url(#paint0_linear_5266_392)"/>
<path d="M5.56125 10.0003V7.32725H4.59375V6.59375H7.42425V7.32725H6.46125V10.0003H5.56125Z" fill="white" style="fill:white;fill-opacity:1;"/>
<path d="M8.29145 10.0003V6.59375H9.27695C9.70895 6.59375 9.98795 6.61625 10.1994 6.66575C10.9554 6.84575 11.3784 7.42625 11.3784 8.29475C11.3784 9.16775 10.9554 9.74825 10.1994 9.92825C9.98795 9.97775 9.70895 10.0003 9.27695 10.0003H8.29145ZM9.41195 9.32075C9.58745 9.32075 9.69995 9.30725 9.82145 9.28025C10.2399 9.19025 10.4469 8.83025 10.4469 8.29925C10.4469 7.74575 10.2399 7.40375 9.82145 7.31375C9.69995 7.28675 9.58745 7.27325 9.41195 7.27325H9.18695V9.32075H9.41195Z" fill="white" style="fill:white;fill-opacity:1;"/>
<path fill-rule="evenodd" clip-rule="evenodd" d="M7.31738 1.95851C7.7401 1.71696 8.2599 1.71696 8.68262 1.95851L9.5498 2.45363C9.37503 2.63327 9.24632 2.85694 9.17871 3.10597L8.31055 2.60988C8.1184 2.50008 7.8816 2.50008 7.68945 2.60988L3.43945 5.03859C3.24521 5.14992 3.12509 5.35667 3.125 5.58058V10.4204C3.12525 10.6442 3.24523 10.8512 3.43945 10.9624L7.68945 13.3911C7.8815 13.5008 8.1185 13.5008 8.31055 13.3911L12.5605 10.9624C12.7548 10.8512 12.8748 10.6442 12.875 10.4204V5.58058C12.8749 5.35667 12.7548 5.14992 12.5605 5.03859L11.6982 4.54542C11.8732 4.36589 12.0025 4.14308 12.0703 3.89406L12.9326 4.38722C13.3606 4.63207 13.6249 5.08748 13.625 5.58058V10.4204C13.6248 10.9134 13.3606 11.369 12.9326 11.6138L8.68262 14.0425C8.26 14.2839 7.74 14.2839 7.31738 14.0425L3.06738 11.6138C2.63942 11.369 2.37525 10.9134 2.375 10.4204V5.58058C2.37509 5.08748 2.6394 4.63207 3.06738 4.38722L7.31738 1.95851Z" fill="white" style="fill:white;fill-opacity:1;"/>
<circle cx="10.625" cy="3.5" r="0.75" fill="white" style="fill:white;fill-opacity:1;"/>
<defs>
<linearGradient id="paint0_linear_5266_392" x1="8" y1="0.378906" x2="8" y2="15.6202" gradientUnits="userSpaceOnUse">
<stop stop-color="#587CFF" style="stop-color:#587CFF;stop-color:color(display-p3 0.3451 0.4863 1.0000);stop-opacity:1;"/>
<stop offset="1" stop-color="#2651F5" style="stop-color:#2651F5;stop-color:color(display-p3 0.1490 0.3176 0.9608);stop-opacity:1;"/>
</linearGradient>
</defs>
</svg>
